<?xml version="1.0" standalone="no"?>
<!DOCTYPE svg PUBLIC "-//W3C//DTD SVG 20010904//EN"
 "http://www.w3.org/TR/2001/REC-SVG-20010904/DTD/svg10.dtd">
<svg version="1.0" xmlns="http://www.w3.org/2000/svg"
 width="1024.000000pt" height="1024.000000pt" viewBox="0 0 1024.000000 1024.000000"
 preserveAspectRatio="xMidYMid meet">

<g transform="translate(0.000000,1024.000000) scale(0.100000,-0.100000)"
fill="#000000" stroke="none">
<path d="M4970 9623 c-1044 -64 -1934 -764 -2235 -1760 -150 -493 -133 -1057
46 -1545 256 -698 838 -1258 1554 -1493 264 -87 502 -125 785 -125 580 0 1120
189 1570 551 508 407 828 988 900 1634 13 116 13 444 0 560 -112 1006 -843
1843 -1835 2100 -243 63 -543 93 -785 78z m550 -347 c438 -85 806 -272 1117
-569 360 -343 569 -754 644 -1267 19 -127 16 -442 -5 -579 -72 -471 -283 -889
-617 -1221 -176 -175 -341 -292 -572 -405 -332 -164 -660 -234 -1040 -222
-457 14 -865 157 -1239 433 -125 93 -350 317 -440 437 -342 461 -486 1030
-403 1592 126 850 756 1548 1595 1766 214 56 328 69 590 65 204 -3 253 -7 370
-30z"/>
<path d="M3972 8663 c-12 -10 -24 -31 -28 -46 -6 -26 12 -47 285 -319 160
-160 294 -302 297 -315 4 -16 0 -31 -11 -43 -41 -45 -53 -36 -355 264 -195
195 -294 287 -314 292 -40 10 -80 -13 -84 -48 -4 -30 35 -75 386 -445 183
-193 201 -220 170 -251 -7 -7 -26 -12 -44 -12 -29 0 -51 20 -206 183 -347 365
-390 407 -418 407 -33 0 -60 -28 -60 -62 0 -23 257 -335 641 -780 32 -37 69
-66 106 -85 54 -26 66 -28 186 -28 l127 0 52 -53 53 -52 -577 -578 c-401 -400
-582 -588 -593 -614 -31 -76 -14 -151 48 -205 60 -52 167 -58 231 -12 18 13
264 269 548 569 283 300 529 557 545 573 l30 28 149 -163 c83 -90 311 -341
508 -558 605 -667 567 -630 655 -630 130 0 215 134 165 259 -12 29 -92 114
-307 323 -248 240 -856 828 -937 905 l-25 24 127 -7 c123 -7 128 -6 181 19 40
20 95 69 218 194 300 306 544 625 720 942 51 90 59 113 59 157 0 118 -124 191
-235 138 -38 -18 -469 -403 -1206 -1077 l-116 -106 -45 47 c-74 78 -72 72 -49
147 35 111 22 226 -34 315 -34 53 -759 710 -784 710 -5 0 -16 2 -24 5 -7 3
-23 -2 -35 -12z"/>
<path d="M7885 4320 c-294 -47 -499 -229 -565 -501 -25 -104 -27 -277 -4 -387
39 -197 167 -368 335 -450 402 -198 839 -20 977 396 23 69 26 93 26 237 1 182
-10 239 -72 365 -116 237 -417 383 -697 340z m223 -281 c154 -52 252 -217 252
-424 0 -151 -44 -269 -128 -346 -163 -151 -428 -122 -551 61 -49 75 -70 140
-78 240 -10 141 32 288 107 374 92 104 256 143 398 95z"/>
<path d="M1990 4304 c-167 -44 -314 -162 -388 -314 -66 -134 -77 -189 -77
-380 0 -185 14 -253 81 -381 152 -289 518 -409 820 -268 151 70 262 214 298
384 l6 30 -150 0 -151 0 -11 -38 c-15 -49 -70 -113 -122 -139 -58 -30 -158
-35 -231 -13 -180 57 -284 313 -231 567 50 231 224 352 425 293 69 -21 133
-82 157 -152 l19 -53 147 0 c169 0 160 -6 132 91 -43 146 -142 264 -277 328
-45 22 -106 44 -135 50 -74 15 -246 13 -312 -5z"/>
<path d="M4487 4305 c-144 -37 -261 -126 -313 -238 -26 -55 -29 -73 -29 -162
0 -89 3 -106 28 -156 59 -121 163 -182 427 -249 254 -65 295 -92 295 -192 0
-57 -2 -61 -41 -98 -50 -46 -126 -66 -218 -56 -109 11 -187 68 -212 153 l-11
38 -151 3 c-173 3 -163 9 -137 -87 22 -85 64 -157 125 -215 103 -98 226 -140
410 -140 190 0 310 44 421 154 86 85 112 148 113 270 0 120 -22 180 -93 250
-80 79 -175 121 -423 186 -175 46 -219 73 -238 146 -30 108 75 189 227 175
109 -11 176 -63 190 -152 l6 -35 148 0 c170 0 162 -6 135 95 -38 143 -133 243
-282 296 -78 28 -290 36 -377 14z"/>
<path d="M3230 4288 c0 -2 -114 -307 -253 -678 l-253 -675 150 -3 c107 -2 152
1 157 9 4 7 26 68 49 136 l42 123 270 -2 271 -3 45 -132 46 -133 153 0 c84 0
153 2 153 4 0 2 -76 203 -168 447 -93 244 -208 549 -257 677 l-88 232 -158 0
c-88 0 -159 -1 -159 -2z m250 -568 c43 -124 81 -233 85 -242 7 -17 -5 -18
-169 -18 -97 0 -176 3 -176 8 0 6 151 452 166 492 6 13 7 13 11 0 3 -8 41
-116 83 -240z"/>
<path d="M5380 3610 l0 -680 145 0 145 0 0 680 0 680 -145 0 -145 0 0 -680z"/>
<path d="M5910 3610 l0 -680 145 0 145 0 2 451 3 452 285 -452 285 -451 163 0
162 0 0 680 0 680 -145 0 -145 0 -2 -455 -3 -455 -275 436 c-151 239 -279 444
-284 455 -8 18 -21 19 -173 19 l-163 0 0 -680z"/>
<path d="M4670 2529 c-102 -26 -170 -61 -235 -121 -155 -142 -175 -407 -41
-556 76 -84 182 -133 395 -183 239 -56 323 -99 337 -175 24 -127 -68 -204
-241 -204 -91 0 -165 22 -212 63 -38 34 -72 97 -73 135 0 22 -1 22 -166 22
l-166 0 7 -45 c31 -207 166 -356 378 -416 69 -20 104 -23 227 -23 130 0 154 3
227 27 146 49 249 134 307 256 29 61 31 74 31 171 0 94 -3 111 -29 167 -65
141 -191 211 -541 303 -196 51 -248 92 -249 191 0 58 22 92 77 120 53 28 165
36 237 19 71 -17 134 -77 150 -143 l12 -47 164 0 c187 0 175 -7 149 95 -62
235 -266 366 -568 364 -67 0 -127 -7 -177 -20z"/>
<path d="M2867 2028 c2 -407 6 -519 19 -587 38 -205 169 -340 389 -402 103
-29 287 -32 385 -6 161 43 294 146 359 278 56 114 60 169 61 717 l0 492 -155
0 -155 0 0 -447 c-1 -495 -6 -570 -47 -645 -99 -183 -422 -169 -505 22 -28 63
-37 234 -38 698 l0 382 -157 0 -158 0 2 -502z"/>
<path d="M5680 1790 l0 -740 155 0 155 0 2 507 3 507 27 -65 c15 -35 110 -264
212 -509 l185 -445 94 -3 94 -3 155 373 c86 205 180 431 210 502 l53 129 3
-497 2 -496 155 0 155 0 0 740 0 740 -214 0 c-162 0 -215 -3 -219 -12 -3 -7
-86 -218 -185 -468 -99 -250 -186 -468 -192 -485 -11 -28 -23 -1 -204 465
l-193 495 -226 3 -227 2 0 -740z"/>
</g>
</svg>
